PathFileType	4	(X/Y/Z)	c:/Users/goper/Files/vsCode/490R/osim_files/C03/C03_fast_03.trc
DataRate	CameraRate	NumFrames	NumMarkers	Units                	OrigDataRate	OrigDataStartFrame	OrigNumFrames
250.00	250.00	6	36	mm	250.0	2127	3402
                Frame#	Time	LPSIS			LASIS			LTH1			LTH2			LTH3			LTH4			LLFE			LMFE			LSH1			LSH2			LSH3			LSH4			LLMAL			LMMAL			LCAL			LMTP5			LTOE			LMTP1			RPSIS			RASIS			RTH1			RTH2			RTH3			RTH4			RLFE			RMFE			RSH1			RSH2			RSH3			RSH4			RLMAL			RMMAL			RCAL			RMTP1			RTOE			RMTP5		
		X1	Y1	Z1	X2	Y2	Z2	X3	Y3	Z3	X4	Y4	Z4	X5	Y5	Z5	X6	Y6	Z6	X7	Y7	Z7	X8	Y8	Z8	X9	Y9	Z9	X10	Y10	Z10	X11	Y11	Z11	X12	Y12	Z12	X13	Y13	Z13	X14	Y14	Z14	X15	Y15	Z15	X16	Y16	Z16	X17	Y17	Z17	X18	Y18	Z18	X19	Y19	Z19	X20	Y20	Z20	X21	Y21	Z21	X22	Y22	Z22	X23	Y23	Z23	X24	Y24	Z24	X25	Y25	Z25	X26	Y26	Z26	X27	Y27	Z27	X28	Y28	Z28	X29	Y29	Z29	X30	Y30	Z30	X31	Y31	Z31	X32	Y32	Z32	X33	Y33	Z33	X34	Y34	Z34	X35	Y35	Z35	X36	Y36	Z36

2127	8.50400	770.31464	999.21106	395.18027	589.79492	947.63416	417.87445	588.78357	600.61438	473.60226	564.20081	545.91931	464.23132	517.30682	626.30237	464.70065	502.44742	568.96753	456.67932	512.78577	477.98969	457.30933	516.74420	469.42426	344.74258	527.59717	286.29742	465.74304	510.46500	242.99130	462.54083	470.61450	306.71872	472.88846	461.53201	259.38055	469.73389	427.77081	98.98890	448.98953	413.60989	113.15484	371.23517	484.06033	57.85625	416.01080	285.77081	73.70697	465.11224	261.34952	104.06964	411.53235	281.74121	83.26474	371.46637	774.27771	993.74951	283.52136	607.60522	944.29840	211.38091	820.93335	599.76025	211.19408	835.67792	540.21741	222.65016	765.97461	585.13086	179.67274	773.35205	523.84149	184.00436	802.92401	452.96469	197.90901	784.74500	463.79315	308.09512	995.22986	374.11908	209.20975	1024.29004	337.22620	213.21637	955.37592	329.89297	191.55191	988.98914	302.83762	196.65161	1098.48242	191.36768	223.08987	1078.87195	182.76370	299.50333	1179.68091	206.44792	265.16785	1050.78406	58.18459	302.38443	1025.15918	57.79053	262.83142	1078.94568	60.95012	199.06842
2128	8.50800	762.78998	1000.03467	395.81998	582.66064	948.09546	418.48633	582.34320	601.88837	475.35895	557.63953	546.51935	465.39743	511.90057	628.67633	467.98709	495.83105	569.31635	457.86743	505.77216	478.33438	457.72476	510.05093	469.94052	344.80164	522.58624	286.96118	467.17776	506.13770	243.42258	463.83234	465.01477	306.59094	473.01648	456.65308	259.19061	469.83359	426.08551	98.61546	449.14182	411.90836	112.47649	371.10565	483.24088	58.27415	416.07230	284.27371	70.85777	464.93414	259.28152	100.60471	411.38666	280.13583	80.29500	371.28690	766.66162	993.89557	283.98056	599.81415	944.23938	212.50238	810.71729	598.01855	211.43413	824.88416	538.29474	222.60670	755.82916	584.10651	179.59637	761.43628	522.71362	184.34674	792.34918	451.84296	196.72134	772.44238	461.34869	307.44077	985.33875	375.97375	209.90608	1015.31946	339.64001	213.77251	946.90308	331.43524	190.46878	980.85010	304.71649	195.90674	1091.54907	194.81067	222.76190	1071.21460	185.32430	298.93228	1171.55945	213.04260	265.89774	1048.15710	59.78406	302.36917	1023.38959	58.32183	262.41434	1077.38501	63.13511	199.42039
2129	8.51200	755.38477	1000.89148	396.32999	575.54169	948.51337	419.16879	574.94659	602.54974	476.03998	550.75427	547.25024	466.79004	503.39035	627.59668	466.96603	488.95227	570.19128	459.28302	498.64917	478.73834	457.94318	506.52509	470.00397	346.69485	517.71832	287.69849	468.78976	502.43347	244.38614	465.87299	459.87442	306.65604	473.48013	452.29868	259.01569	470.34180	424.55939	98.32514	449.27496	409.97375	111.61658	371.30313	482.45694	58.79866	416.18091	283.01691	68.23092	465.04153	257.44214	97.50156	411.50330	278.60379	77.68069	371.35779	759.21899	994.06439	284.38501	591.48865	944.67157	213.74272	800.49744	596.22717	211.66853	813.97009	536.35095	222.67464	745.52979	582.98297	179.50366	751.69244	521.56659	183.41095	781.37457	450.60809	196.13712	759.83081	458.70001	306.59067	974.97375	377.80447	210.94806	1005.51752	341.80154	214.36304	938.04065	332.87573	189.87555	972.02075	306.62759	195.64447	1084.23474	198.28073	222.50037	1063.22668	187.91147	298.37674	1162.79919	219.61403	266.49487	1045.24146	61.54489	302.32794	1021.27289	58.90547	262.02844	1075.50415	65.64242	199.72069
2130	8.51600	748.00751	1001.73932	396.82730	568.25836	949.47693	419.67871	568.12677	603.88904	477.74405	543.86060	548.28180	467.95752	497.71408	630.18634	469.67065	480.78244	570.53546	459.60730	491.53040	479.23132	458.11893	500.82388	470.71640	347.54779	512.85168	288.44916	470.41556	498.12704	244.96376	467.27274	454.67566	306.78687	473.52338	448.23206	258.89487	470.25076	423.09985	98.04755	449.46750	408.62082	111.30470	371.31332	481.72119	59.25383	416.25827	281.86523	65.81282	465.16391	255.78572	94.61960	411.86078	277.30582	75.32825	371.63849	751.90015	994.25171	284.72556	584.25677	944.52765	214.81845	790.11304	594.29297	211.97404	803.08362	534.26971	222.55054	735.24994	581.86316	179.42665	739.75165	520.09717	183.64223	770.19592	449.42908	195.68886	746.19519	455.81644	305.20639	964.76697	379.59299	211.36919	996.37732	344.18671	214.21281	928.60529	334.32751	189.55875	963.01471	308.63699	195.45935	1076.43750	201.83005	222.19742	1054.93347	190.48303	297.94577	1153.32263	226.19174	267.05655	1042.00513	63.46093	302.25391	1018.53149	59.43737	261.77975	1073.12646	68.51263	199.93257
2131	8.52000	740.82947	1002.72742	397.19952	561.03699	949.87177	420.09518	560.53979	604.72302	478.38965	536.53046	549.59863	468.83997	490.58902	631.42157	469.99728	473.71832	572.61688	460.89972	484.49469	479.98486	458.23547	494.18008	471.62616	347.95624	508.04861	289.29169	472.07944	493.87320	245.64857	468.63614	449.88239	307.18616	474.08353	443.20291	259.18085	470.59268	421.84842	97.85124	449.70929	407.26434	111.05917	371.55914	481.09146	59.69954	416.38257	280.86316	63.55386	465.37646	254.37675	92.05005	412.12668	275.83768	73.54416	371.69363	744.64496	994.39368	285.08896	577.11115	944.32831	215.92339	779.67206	592.33905	212.29236	791.70569	532.07678	222.94026	724.83356	580.62103	179.40744	728.87134	519.14954	183.28311	759.11469	448.28802	195.04117	733.46185	453.01453	304.32590	954.41650	381.57129	212.04906	985.81195	346.02316	215.03635	918.78278	335.62915	189.30951	953.68414	310.59015	195.19814	1068.06775	205.50938	221.90205	1046.36609	193.18671	297.67270	1143.45398	233.18629	266.92276	1038.41638	65.52610	302.14017	1015.21033	59.98498	261.41669	1070.07446	71.79547	200.23795
2132	8.52400	733.79883	1003.74146	397.46844	554.04016	950.58075	420.69745	553.22235	606.13220	479.45328	529.22229	550.75153	470.26688	483.42529	632.91968	469.95383	466.81958	575.38000	462.38235	477.59222	480.88614	458.32986	489.83612	472.41321	348.90356	503.27127	290.12262	474.10635	489.76108	246.48958	470.01035	444.90948	307.54916	474.06375	439.18164	259.49622	471.14337	420.59824	97.64322	449.90234	405.93250	110.65444	371.93033	480.53873	60.09448	416.48761	279.92126	61.80045	465.47299	252.77261	89.76163	412.17014	275.27643	71.36872	371.92102	737.48303	994.53101	285.35709	570.10913	944.07068	217.09140	769.18500	590.31897	212.67007	780.43262	529.85144	223.17188	714.39227	579.31360	179.48004	717.20117	517.61566	183.47514	747.28223	447.03915	194.98830	719.61230	450.32111	303.46942	942.93005	383.02606	212.88083	975.26416	348.39713	215.59077	908.83405	337.17154	189.11308	944.03174	312.39774	195.01982	1059.26685	209.38763	221.51422	1037.47864	196.05458	297.55743	1132.78833	240.85672	267.59909	1034.44287	67.73427	301.97968	1011.27039	60.66080	261.28979	1066.35510	75.49576	200.50337
